<?xml version="1.0" encoding="UTF-8" standalone="no"?>
<!DOCTYPE svg PUBLIC "-//W3C//DTD SVG 1.1//EN"
 "http://www.w3.org/Graphics/SVG/1.1/DTD/svg11.dtd">
<!-- Generated by graphviz version 12.1.2 (20240928.0832)
 -->
<!-- Title: workflow Pages: 1 -->
<svg width="751pt" height="386pt"
 viewBox="0.00 0.00 750.81 386.03" xmlns="http://www.w3.org/2000/svg" xmlns:xlink="http://www.w3.org/1999/xlink">
<g id="graph0" class="graph" transform="scale(1 1) rotate(0) translate(4 382.03)">
<title>workflow</title>
<polygon fill="white" stroke="none" points="-4,4 -4,-382.03 746.81,-382.03 746.81,4 -4,4"/>
<!-- place_088e29b0ab0079560dea5d3e5aeb2f7868af661e -->
<g id="node1" class="node">
<title>place_088e29b0ab0079560dea5d3e5aeb2f7868af661e</title>
<ellipse fill="lightblue" stroke="#333333" cx="36" cy="-192.71" rx="36" ry="36"/>
<text text-anchor="middle" x="36" y="-189.41" font-family="Arial" font-size="9.00">request</text>
</g>
<!-- place_8a0e5d9933c06781d477cddcfab8cb09f41ed361 -->
<g id="node2" class="node">
<title>place_8a0e5d9933c06781d477cddcfab8cb09f41ed361</title>
<ellipse fill="none" stroke="#333333" cx="222" cy="-192.71" rx="36" ry="36"/>
<text text-anchor="middle" x="222" y="-189.41" font-family="Arial" font-size="9.00">inscription</text>
</g>
<!-- place_088e29b0ab0079560dea5d3e5aeb2f7868af661e&#45;&gt;place_8a0e5d9933c06781d477cddcfab8cb09f41ed361 -->
<g id="edge1" class="edge">
<title>place_088e29b0ab0079560dea5d3e5aeb2f7868af661e&#45;&gt;place_8a0e5d9933c06781d477cddcfab8cb09f41ed361</title>
<path fill="none" stroke="#333333" d="M72.48,-192.71C103.02,-192.71 147.14,-192.71 179.36,-192.71"/>
<polygon fill="#333333" stroke="#333333" points="179.12,-194.46 184.12,-192.71 179.12,-190.96 179.12,-194.46"/>
<text text-anchor="middle" x="129" y="-194.66" font-family="Arial" font-size="9.00">begin_subscription</text>
</g>
<!-- place_e26c3bdaf8742275c9fe57f29dba2109c7b2b962 -->
<g id="node3" class="node">
<title>place_e26c3bdaf8742275c9fe57f29dba2109c7b2b962</title>
<ellipse fill="none" stroke="#333333" cx="449.03" cy="-338.71" rx="39.32" ry="39.32"/>
<text text-anchor="middle" x="449.03" y="-335.41" font-family="Arial" font-size="9.00">validated_mail</text>
</g>
<!-- place_8a0e5d9933c06781d477cddcfab8cb09f41ed361&#45;&gt;place_e26c3bdaf8742275c9fe57f29dba2109c7b2b962 -->
<g id="edge2" class="edge">
<title>place_8a0e5d9933c06781d477cddcfab8cb09f41ed361&#45;&gt;place_e26c3bdaf8742275c9fe57f29dba2109c7b2b962</title>
<path fill="none" stroke="#333333" d="M243.44,-222.04C252.47,-233.55 263.81,-246.24 276,-255.71 315.77,-286.6 368.9,-310.05 405.54,-324.02"/>
<polygon fill="#333333" stroke="#333333" points="404.56,-325.52 409.86,-325.64 405.8,-322.24 404.56,-325.52"/>
<text text-anchor="middle" x="330.75" y="-316.95" font-family="Arial" font-size="9.00">validation_mail_ok</text>
</g>
<!-- place_65b237e445715f828c6b185a44129b53f0120cbc -->
<g id="node4" class="node">
<title>place_65b237e445715f828c6b185a44129b53f0120cbc</title>
<ellipse fill="none" stroke="#333333" cx="449.03" cy="-243.71" rx="37.77" ry="37.77"/>
<text text-anchor="middle" x="449.03" y="-240.41" font-family="Arial" font-size="9.00">notification_ui</text>
</g>
<!-- place_8a0e5d9933c06781d477cddcfab8cb09f41ed361&#45;&gt;place_65b237e445715f828c6b185a44129b53f0120cbc -->
<g id="edge3" class="edge">
<title>place_8a0e5d9933c06781d477cddcfab8cb09f41ed361&#45;&gt;place_65b237e445715f828c6b185a44129b53f0120cbc</title>
<path fill="none" stroke="#333333" d="M252.95,-211.61C260.26,-215.5 268.22,-219.18 276,-221.71 318.33,-235.45 369.12,-240.66 404.5,-242.6"/>
<polygon fill="#333333" stroke="#333333" points="404.32,-244.35 409.41,-242.85 404.5,-240.85 404.32,-244.35"/>
<text text-anchor="middle" x="330.75" y="-243.27" font-family="Arial" font-size="9.00">validation_mail_ko</text>
</g>
<!-- place_fd827103edc2963b5f2ce0ee386a10c9eb0c0da2 -->
<g id="node5" class="node">
<title>place_fd827103edc2963b5f2ce0ee386a10c9eb0c0da2</title>
<ellipse fill="none" stroke="#333333" cx="449.03" cy="-142.71" rx="45.53" ry="45.53"/>
<text text-anchor="middle" x="449.03" y="-139.41" font-family="Arial" font-size="9.00">notification_email</text>
</g>
<!-- place_8a0e5d9933c06781d477cddcfab8cb09f41ed361&#45;&gt;place_fd827103edc2963b5f2ce0ee386a10c9eb0c0da2 -->
<g id="edge5" class="edge">
<title>place_8a0e5d9933c06781d477cddcfab8cb09f41ed361&#45;&gt;place_fd827103edc2963b5f2ce0ee386a10c9eb0c0da2</title>
<path fill="none" stroke="#333333" d="M256.81,-182.35C263.16,-180.54 269.76,-178.74 276,-177.21 316.65,-167.21 363.24,-158 397.67,-151.62"/>
<polygon fill="#333333" stroke="#333333" points="397.87,-153.36 402.47,-150.73 397.24,-149.92 397.87,-153.36"/>
<text text-anchor="middle" x="330.75" y="-179.16" font-family="Arial" font-size="9.00">validation_resp_ko</text>
</g>
<!-- place_4a621703b2425fadb5d1c491e550cb7807d8aed7 -->
<g id="node6" class="node">
<title>place_4a621703b2425fadb5d1c491e550cb7807d8aed7</title>
<ellipse fill="none" stroke="#333333" cx="449.03" cy="-39.71" rx="39.71" ry="39.71"/>
<text text-anchor="middle" x="449.03" y="-36.41" font-family="Arial" font-size="9.00">validated_user</text>
</g>
<!-- place_8a0e5d9933c06781d477cddcfab8cb09f41ed361&#45;&gt;place_4a621703b2425fadb5d1c491e550cb7807d8aed7 -->
<g id="edge4" class="edge">
<title>place_8a0e5d9933c06781d477cddcfab8cb09f41ed361&#45;&gt;place_4a621703b2425fadb5d1c491e550cb7807d8aed7</title>
<path fill="none" stroke="#333333" d="M238.9,-160.84C248.01,-145.15 260.69,-126.92 276,-114.21 313.92,-82.74 367.15,-62.43 404.33,-51.09"/>
<polygon fill="#333333" stroke="#333333" points="404.41,-52.9 408.7,-49.79 403.41,-49.54 404.41,-52.9"/>
<text text-anchor="middle" x="330.75" y="-116.16" font-family="Arial" font-size="9.00">validation_resp_ok</text>
</g>
<!-- place_7d87d53305e8d6b28b5bfb655025898df6c49ed4 -->
<g id="node7" class="node">
<title>place_7d87d53305e8d6b28b5bfb655025898df6c49ed4</title>
<ellipse fill="none" stroke="#333333" cx="706.81" cy="-188.71" rx="36" ry="36"/>
<text text-anchor="middle" x="706.81" y="-185.41" font-family="Arial" font-size="9.00">subscribed</text>
</g>
<!-- place_e26c3bdaf8742275c9fe57f29dba2109c7b2b962&#45;&gt;place_7d87d53305e8d6b28b5bfb655025898df6c49ed4 -->
<g id="edge8" class="edge">
<title>place_e26c3bdaf8742275c9fe57f29dba2109c7b2b962&#45;&gt;place_7d87d53305e8d6b28b5bfb655025898df6c49ed4</title>
<path fill="none" stroke="#333333" d="M483.47,-319.1C531.58,-290.88 619.99,-239.03 669.6,-209.94"/>
<polygon fill="#333333" stroke="#333333" points="670.42,-211.49 673.85,-207.45 668.65,-208.47 670.42,-211.49"/>
<text text-anchor="middle" x="582.68" y="-300.43" font-family="Arial" font-size="9.00">subscription_confirmed_by_refsec</text>
</g>
<!-- place_65b237e445715f828c6b185a44129b53f0120cbc&#45;&gt;place_8a0e5d9933c06781d477cddcfab8cb09f41ed361 -->
<g id="edge7" class="edge">
<title>place_65b237e445715f828c6b185a44129b53f0120cbc&#45;&gt;place_8a0e5d9933c06781d477cddcfab8cb09f41ed361</title>
<path fill="none" stroke="#333333" d="M417.01,-223.38C407.28,-217.9 396.27,-212.57 385.5,-209.21 345.79,-196.81 298.22,-193.2 264.84,-192.38"/>
<polygon fill="#333333" stroke="#333333" points="264.91,-190.63 259.88,-192.28 264.84,-194.13 264.91,-190.63"/>
<text text-anchor="middle" x="330.75" y="-211.16" font-family="Arial" font-size="9.00">notification_ui_rollback</text>
</g>
<!-- place_fd827103edc2963b5f2ce0ee386a10c9eb0c0da2&#45;&gt;place_8a0e5d9933c06781d477cddcfab8cb09f41ed361 -->
<g id="edge6" class="edge">
<title>place_fd827103edc2963b5f2ce0ee386a10c9eb0c0da2&#45;&gt;place_8a0e5d9933c06781d477cddcfab8cb09f41ed361</title>
<path fill="none" stroke="#333333" d="M404.24,-133.31C368.4,-127.71 317.1,-124.53 276,-141.21 265.87,-145.32 256.61,-152.4 248.76,-160.02"/>
<polygon fill="#333333" stroke="#333333" points="247.88,-158.42 245.62,-163.21 250.37,-160.88 247.88,-158.42"/>
<text text-anchor="middle" x="330.75" y="-143.16" font-family="Arial" font-size="9.00">notification_email_rollback</text>
</g>
<!-- place_4a621703b2425fadb5d1c491e550cb7807d8aed7&#45;&gt;place_7d87d53305e8d6b28b5bfb655025898df6c49ed4 -->
<g id="edge9" class="edge">
<title>place_4a621703b2425fadb5d1c491e550cb7807d8aed7&#45;&gt;place_7d87d53305e8d6b28b5bfb655025898df6c49ed4</title>
<path fill="none" stroke="#333333" d="M483.99,-59.49C532.28,-87.62 620.37,-138.94 669.76,-167.71"/>
<polygon fill="#333333" stroke="#333333" points="668.79,-169.17 673.99,-170.17 670.55,-166.14 668.79,-169.17"/>
<text text-anchor="middle" x="582.68" y="-158.47" font-family="Arial" font-size="9.00">subscription_confirmed_by_user</text>
</g>
</g>
</svg>
